<svg width="28" height="18" viewBox="0 0 28 18" fill="white" xmlns="http://www.w3.org/2000/svg"><path d="M27 16.5C27 17.0523 26.5523 17.5 26 17.5H15.5C14.9477 17.5 14.5 17.0523 14.5 16.5C14.5 15.9477 14.9477 15.5 15.5 15.5H26C26.5523 15.5 27 15.9477 27 16.5ZM27 9C27 9.55229 26.5523 10 26 10H2C1.44772 10 1 9.55228 1 9C1 8.44771 1.44772 8 2 8H26C26.5523 8 27 8.44771 27 9ZM27 1.5C27 2.05228 26.5523 2.5 26 2.5H2C1.44772 2.5 1 2.05228 1 1.5C1 0.947715 1.44772 0.5 2 0.5H26C26.5523 0.5 27 0.947715 27 1.5Z" fill="white" stroke="white" stroke-linejoin="round"></path></svg>